<svg width="167" height="187" viewBox="0 0 167 187" fill="none" xmlns="http://www.w3.org/2000/svg">
<mask id="mask0_44_10283" style="mask-type:alpha" maskUnits="userSpaceOnUse" x="7" y="13" width="152" height="162">
<path d="M63.3448 39.6639C77.022 18.4127 100.543 12.479 110.463 13.7376C127.224 16.4964 138.125 23.4052 141.48 26.5148C186.757 66.3391 129.779 150.895 108.153 163.054C90.9753 175.196 41.8457 183.015 18.4975 152.975C-4.8507 122.935 14.6963 89.2896 27.3883 76.2219C33.8126 69.6074 54.0907 52.5489 63.3448 39.6639Z" fill="#F0A65F" stroke="#F0A65F"/>
</mask>
<g mask="url(#mask0_44_10283)">
<path d="M63.2423 39.789C76.9195 18.5379 100.44 12.6041 110.36 13.8627C127.121 16.6215 138.022 23.5303 141.377 26.6399C186.655 66.4642 129.677 151.02 108.051 163.179C90.8727 175.321 41.7431 183.14 18.395 153.1C-4.95324 123.06 14.5937 89.4147 27.2857 76.347C33.7101 69.7325 53.9881 52.6741 63.2423 39.789Z" fill="#F0A65F" stroke="#F0A65F"/>
<path fill-rule="evenodd" clip-rule="evenodd" d="M77.335 29.0126C74.7781 27.0401 71.9979 25.9466 70.3691 25.5632C68.4831 25.1193 67.3141 23.2306 67.758 21.3447C68.2019 19.4588 70.0906 18.2898 71.9766 18.7337C74.503 19.3284 78.2126 20.8283 81.6205 23.4573C85.061 26.1114 88.3729 30.0635 89.628 35.5656C90.0589 37.4546 88.8769 39.3352 86.9879 39.766C85.099 40.1969 83.2184 39.0149 82.7875 37.126C81.9872 33.6176 79.8593 30.96 77.335 29.0126ZM132.626 52.3344C130.069 50.3619 127.289 49.2685 125.66 48.8851C123.774 48.4412 122.605 46.5525 123.049 44.6666C123.493 42.7806 125.382 41.6116 127.268 42.0555C129.794 42.6502 133.504 44.1502 136.912 46.7792C140.352 49.4333 143.664 53.3854 144.919 58.8875C145.35 60.7764 144.168 62.657 142.279 63.0879C140.39 63.5188 138.51 62.3368 138.079 60.4478C137.279 56.9394 135.151 54.2818 132.626 52.3344ZM129.893 101.545C127.336 99.5723 124.556 98.4789 122.927 98.0955C121.041 97.6516 119.872 95.7629 120.316 93.877C120.76 91.991 122.649 90.8221 124.535 91.266C127.061 91.8606 130.771 93.3606 134.179 95.9896C137.619 98.6437 140.931 102.596 142.186 108.098C142.617 109.987 141.435 111.867 139.546 112.298C137.657 112.729 135.776 111.547 135.346 109.658C134.545 106.15 132.417 103.492 129.893 101.545Z" fill="#E28540"/>
<path fill-rule="evenodd" clip-rule="evenodd" d="M36.6934 99.1074C34.1365 97.1349 31.3563 96.0414 29.7275 95.658C27.8415 95.2141 26.6725 93.3254 27.1164 91.4395C27.5603 89.5536 29.449 88.3846 31.335 88.8285C33.8614 89.4231 37.571 90.9231 40.9789 93.5521C44.4194 96.2062 47.7313 100.158 48.9864 105.66C49.4173 107.549 48.2353 109.43 46.3463 109.861C44.4574 110.292 42.5768 109.11 42.1459 107.221C41.3456 103.712 39.2177 101.055 36.6934 99.1074Z" fill="#E28540"/>
<path fill-rule="evenodd" clip-rule="evenodd" d="M54.4263 63.2003C55.2476 61.4456 57.3359 60.6888 59.0907 61.5102C62.9009 63.2935 68.8991 66.864 74.8825 71.9024C80.8594 76.9354 87.012 83.5927 90.8802 91.6016C91.7229 93.3462 90.9917 95.4436 89.2471 96.2862C87.5024 97.1289 85.405 96.3977 84.5624 94.653C81.2695 87.8355 75.891 81.924 70.3632 77.2693C64.8418 72.6199 59.3617 69.3836 56.1164 67.8647C54.3617 67.0434 53.605 64.9551 54.4263 63.2003Z" fill="#E28540"/>
<path d="M143.847 87.9068C166.699 40.9137 139.637 31.3485 128.143 18.6622C129.804 18.9356 135.953 21.8793 147.262 31.4672C161.398 43.4521 160.35 70.5494 157.709 86.5904C157.585 100.015 130.066 155.518 108.415 166.157C86.7637 176.796 75.94 175.772 53.7112 174.954C35.9281 174.3 18.8822 157.038 12.5821 148.49C16.3474 150.561 26.4421 156.368 36.9791 156.861C109.152 161.677 126.484 132.907 143.847 87.9068Z" fill="#E28540"/>
</g>
</svg>
